<svg data-v-0dd9719b="" version="1.0" xmlns="http://www.w3.org/2000/svg" xmlns:xlink="http://www.w3.org/1999/xlink" width="100%" height="100%" viewBox="0 0 340.000000 250.000000" preserveAspectRatio="xMidYMid meet" color-interpolation-filters="sRGB" style="margin: auto;"> <rect data-v-0dd9719b="" x="0" y="0" width="100%" height="100%" fill="#fff" fill-opacity="1" class="background"></rect> <rect data-v-0dd9719b="" x="0" y="0" width="100%" height="100%" fill="url(#watermark)" fill-opacity="1" class="watermarklayer"></rect> <g data-v-0dd9719b="" fill="#2bbdc4" class="icon-text-wrapper icon-svg-group iconsvg" transform="translate(48.214996337890625,96.44352912902832)"><g class="iconsvg-imagesvg" transform="translate(0,0)"><g><rect fill="#2bbdc4" fill-opacity="0" stroke-width="2" x="0" y="0" width="60" height="57.11294084051211" class="image-rect"></rect> <svg x="0" y="0" width="60" height="57.11294084051211" filtersec="colorsb2670643483" class="image-svg-svg primary" style="overflow: visible;"><svg xmlns="http://www.w3.org/2000/svg" viewBox="0 0 86.859375 82.68000030517578"><g style="isolation:isolate"><g><path d="M62.3 82.68a25.06 25.06 0 0 0 0-50.11H12.22v50.11z" fill="#2bbdc4"></path><path d="M70.54 0H25.05a25.05 25.05 0 0 0 0 50.1h45.49z" fill="#e71970" style="mix-blend-mode:multiply"></path></g></g></svg></svg> <!----></g></g> <g transform="translate(67,0.6502227783203125)"><g data-gra="path-name" fill-rule="" class="tp-name iconsvg-namesvg" transform="translate(0,0)"><g transform="scale(1)"><g><path d="M19.26-30.15L19.26-30.15Q21.38-30.15 26.62-31.07 31.86-31.99 33.39-32.85L33.39-32.85Q34.42-33.44 35.41-33.44 36.41-33.44 39.26-31.54 42.12-29.65 42.12-28.53 42.12-27.4 39.82-27.27 37.53-27.13 35.93-26.39 34.34-25.65 33.8-25.65 33.25-25.65 33.25-26.08 33.25-26.5 33.93-27.63 34.6-28.75 34.6-29.32 34.6-29.88 33.7-29.88 32.8-29.88 30.53-29.61 28.26-29.34 25.67-28.78 23.09-28.21 21.85-28.21 20.61-28.21 19.84-28.35L19.84-28.35Q19.53-25.56 18.36-23.67 17.19-21.78 16.27-21.78 15.34-21.78 14.74-22.88 14.13-23.98 14.13-24.7 14.13-25.43 15.21-26.89 16.29-28.35 16.74-30.15 17.19-31.95 17.71-31.95 18.22-31.95 19.26-30.15ZM7.83-31.99L7.83-31.99Q9.04-31.99 10.98-31.63 12.91-31.27 13.63-30.24 14.35-29.2 14.35-28.06 14.35-26.91 13.72-26.19 13.09-25.47 12.24-25.47L12.24-25.47Q10.71-25.47 8.75-28.15 6.79-30.82 6.79-31.5L6.79-31.5Q6.79-31.99 7.83-31.99ZM26.55-25.29L26.55-25.29Q26.55-24.84 25.79-24.39L25.79-24.39Q24.48-23.63 23.22-22.05 21.96-20.47 19.98-19.46 18-18.45 17.28-18.45L17.28-18.45Q16.96-18.45 16.96-18.74 16.96-19.04 17.91-20.11L17.91-20.11Q21.78-24.48 21.78-25.74L21.78-25.74Q21.78-25.92 21.67-26.23 21.55-26.55 21.55-26.91L21.55-26.91Q21.55-27.68 22.39-27.68 23.22-27.68 24.88-26.84 26.55-26.01 26.55-25.29ZM28.35-26.73L28.35-26.73Q29.2-26.73 31.21-26.17 33.21-25.61 33.91-24.73 34.6-23.85 34.6-22.7 34.6-21.55 34.22-21.06 33.84-20.56 33.21-20.56L33.21-20.56Q32.04-20.56 29.83-23.09 27.63-25.61 27.63-26.32L27.63-26.32Q27.63-26.73 28.35-26.73ZM10.71-19.17L10.71-19.17Q10.71-17.91 10.19-17.1 9.67-16.29 8.82-16.29L8.82-16.29Q7.29-16.29 5.47-18.88 3.65-21.46 3.65-22.36L3.65-22.36Q3.65-22.81 4.54-22.81L4.54-22.81Q6.71-22.81 8.71-21.94 10.71-21.06 10.71-19.17ZM27.49-14.85L27.45-14.26Q32.09-10.04 35.12-8.21 38.16-6.39 42.39-4.91L42.39-4.91Q45.05-3.96 45.05-3.38 45.05-2.79 41.42-2.11 37.8-1.44 36.59-1.44 35.37-1.44 34.54-1.87 33.7-2.29 32.67-3.87L32.67-3.87Q30.38-7.25 27.4-11.12L27.4-11.12 27.4-8.1 27.58-0.99Q27.58 1.17 26.89 2.61 26.19 4.05 25.24 4.05 24.3 4.05 23.38 2.65 22.45 1.26 22.45 0.22 22.45-0.81 23.4-3.06L23.4-3.06Q23.85-4.14 23.89-9.76L23.89-9.76Q20.93-5.17 17.01-3.33 13.09-1.48 11.65-1.48L11.65-1.48Q11.21-1.48 11.21-1.71L11.21-1.71Q11.21-2.25 13.23-3.69L13.23-3.69Q19.26-8.05 22.5-14.31L22.5-14.31Q21.55-14.22 19.75-13.72 17.95-13.23 17.12-13.23 16.29-13.23 15.37-14.15 14.45-15.07 14.45-15.34 14.45-15.62 14.92-15.77 15.39-15.93 17.5-15.93 19.62-15.93 23.85-16.79L23.85-16.79Q23.8-18.68 23.45-19.3L23.45-19.3Q22.77-20.52 22.77-21.04 22.77-21.55 23.51-21.55 24.25-21.55 26.35-21.04 28.44-20.52 28.44-19.48L28.44-19.48Q28.44-18.9 27.77-17.46L27.77-17.46Q30.11-17.77 31.66-18.25 33.21-18.72 34.54-18.72 35.87-18.72 37.03-17.57 38.2-16.43 38.2-15.79L38.2-15.79Q38.2-14.8 35.82-14.8L35.82-14.8Q35.14-14.8 34.09-14.92 33.03-15.03 31.3-15.03 29.56-15.03 27.49-14.85L27.49-14.85ZM14.8-19.35L14.8-19.35Q14.8-18.27 13.54-15.21L13.54-15.21Q11.34-9.72 9.81-2.11L9.81-2.11Q9.09 1.48 8.03 1.48 6.97 1.48 5.74-2.27 4.5-6.03 4.5-6.91 4.5-7.79 4.88-8.01 5.26-8.23 6.25-8.41L6.25-8.41Q7.65-8.64 11.79-16.02L11.79-16.02Q13.9-19.75 14.58-19.75L14.58-19.75Q14.8-19.75 14.8-19.35ZM86.27-31.23L86.27-31.23Q86.27-30.69 85.77-29.47 85.28-28.26 85.05-24.57 84.82-20.88 84.82-18.31 84.82-15.75 85.03-9.2 85.23-2.65 85.23-2.52L85.23-2.52Q85.23 0.54 84.62 2.65 84.02 4.77 83.05 4.77 82.08 4.77 80.75 3.01 79.42 1.26 79.42-0.14L79.42-0.14Q79.42-1.17 80.26-3.15 81.09-5.13 81.09-18.68L81.09-18.68Q81.09-25.2 80.89-27.81 80.69-30.42 79.88-31.41L79.88-31.41Q78.62-32.98 78.62-33.75 78.62-34.52 79.65-34.52 80.69-34.52 82.78-33.68 84.87-32.85 85.57-32.38 86.27-31.9 86.27-31.23ZM61.34-21.11L61.34-21.11Q62.23-21.38 62.91-21.38 63.59-21.38 64.73-20.86 65.88-20.34 65.88-19.73 65.88-19.13 64.87-18.63 63.86-18.13 61.2-17.46L61.2-17.46 61.02-12.24Q63.99-13.41 65-13.41 66.02-13.41 66.02-13L66.02-13Q66.02-12.2 63.9-10.98L63.9-10.98Q55.22-5.98 54.13-4.91L54.13-4.91Q53.41-4.18 52.56-4.18 51.7-4.18 49.77-5.76 47.84-7.33 47.84-8.05 47.84-8.78 50.27-8.78 52.7-8.78 57.24-10.66L57.24-10.66 57.28-16.65Q56.07-16.43 54.92-16.43 53.77-16.43 52.4-17.05 51.03-17.68 51.03-18.11 51.03-18.54 52.56-18.65 54.09-18.77 57.33-19.8L57.33-19.8Q57.38-24.7 57.15-26.44 56.92-28.17 56.02-29.07L56.02-29.07Q54.72-30.33 54.72-31.18 54.72-32.04 56.14-32.04 57.55-32.04 60.12-31.05 62.69-30.06 62.69-28.8L62.69-28.8Q62.69-28.26 62.1-27.29 61.52-26.32 61.34-21.11ZM71.59-24.12L71.59-24.12Q71.59-23.63 71.23-23.13L71.23-23.13Q70.56-22.14 70.52-19.26L70.52-19.26Q70.33-13 70.02-11.5 69.7-9.99 68.72-7.38 67.72-4.77 66.53-3.31 65.34-1.84 63.2-0.54 61.06 0.77 60.55 0.77 60.03 0.77 60.03 0.49L60.03 0.49Q60.03-0.14 61.7-2.07 63.36-4 64.33-5.92 65.3-7.83 65.97-10.96 66.64-14.08 66.64-17.37L66.64-17.37Q66.64-23.54 65.75-24.57 64.84-25.61 64.84-26.23 64.84-26.86 65.97-26.86 67.09-26.86 69.34-26.03 71.59-25.2 71.59-24.12ZM78.25-23.85L78.25-23.85Q78.25-23.45 77.83-22.45 77.4-21.46 77.27-19.1 77.13-16.74 77.13-13.28L77.13-13.28 77.17-9.27Q77.17-6.97 76.52-5.56 75.87-4.14 75.13-4.14 74.38-4.14 73.48-5.26 72.58-6.39 72.58-7.27 72.58-8.14 73.08-9.49L73.08-9.49Q73.8-11.47 73.8-17.77L73.8-17.77Q73.8-20.84 73.64-22.16 73.48-23.49 72.83-24.3 72.18-25.11 72.18-25.72 72.18-26.32 73.1-26.32 74.03-26.32 76.14-25.56 78.25-24.79 78.25-23.85ZM109.62-32.85L109.62-32.85Q115.11-32.85 115.11-29.29L115.11-29.29Q115.11-28.17 114.57-27.52 114.03-26.86 113.36-26.86 112.68-26.86 112.23-27.16 111.78-27.45 110.61-28.78 109.44-30.11 108.81-30.98 108.18-31.86 108.18-32.35 108.18-32.85 109.62-32.85ZM130.37-21.02L130.37-21.02Q130.37-15.71 131.26-8.14L131.26-8.14Q131.58-5.63 131.58-3.82L131.58-3.82Q131.58-0.22 130.05 1.87 128.52 3.96 127.31 3.96 126.09 3.96 125.55 2.29L125.55 2.29Q125.32 1.62 124.74 0.83 124.16 0.04 122.4-1.55 120.64-3.15 120.64-3.62 120.64-4.09 121.23-4.09 121.81-4.09 123.25-3.71 124.69-3.33 125.39-3.33 126.09-3.33 126.34-3.51 126.59-3.69 126.65-3.98 126.72-4.27 126.79-6.5 126.85-8.73 126.85-12.29 126.85-15.84 126.5-20.7L126.5-20.7 126.05-26.23Q126-26.91 125.82-27.29 125.64-27.68 125.17-27.68 124.69-27.68 123.57-27.47 122.44-27.27 121.14-26.84 119.83-26.41 119.09-26.41 118.35-26.41 117.13-27.38 115.92-28.35 115.92-28.69 115.92-29.02 116.37-29.11 116.82-29.2 118.39-29.2 119.97-29.2 121.79-29.7 123.62-30.2 124.74-30.94 125.87-31.68 126.63-31.68L126.63-31.68Q127.75-31.68 129.82-30.51 131.89-29.34 131.89-28.35L131.89-28.35Q131.89-27.81 131.13-26.86 130.37-25.92 130.37-21.02ZM98.1-31.09L98.1-31.09Q100.8-31.09 102.35-30.38 103.91-29.65 103.91-27.45L103.91-27.45Q103.91-26.37 103.43-25.7 102.96-25.02 102.19-25.02 101.43-25.02 100.31-26.03 99.18-27.04 98.08-28.6 96.97-30.15 96.97-30.62 96.97-31.09 98.1-31.09ZM110.43-25.47L110.43-25.47Q110.43-24.93 109.89-23.87 109.35-22.81 109.35-17.59L109.35-17.59Q109.31-3.55 108.27-0.74 107.23 2.07 106.2 2.07L106.2 2.07Q105.53 2.07 104.65 0.56 103.77-0.94 103.77-2.11 103.77-3.28 104.36-4.27 104.94-5.26 105.5-9.2 106.06-13.14 106.06-20.02L106.06-20.02Q106.06-24.84 105.3-25.88L105.3-25.88Q104.44-27 104.44-27.68 104.44-28.35 105.34-28.35 106.25-28.35 108.34-27.43 110.43-26.5 110.43-25.47ZM119.25-14.67L119.11-11.29Q120.64-11.56 121.79-11.92 122.94-12.29 123.7-12.29 124.47-12.29 125.5-11.43 126.54-10.57 126.54-10.06 126.54-9.54 125.98-9.25 125.41-8.96 124.42-8.96L124.42-8.96 122.94-9.04Q121.28-9.04 118.24-8.64 115.2-8.23 113.76-7.83 112.32-7.42 111.73-7.42 111.15-7.42 110.18-8.26 109.22-9.09 109.22-9.54 109.22-9.99 110.95-10.15 112.68-10.3 115.65-10.66L115.65-10.66 115.74-13.99Q114.93-13.9 114.37-13.9 113.81-13.9 112.59-14.4 111.38-14.89 111.38-15.19 111.38-15.48 112.75-15.73 114.12-15.97 115.69-16.43L115.69-16.43Q115.69-18.13 115.42-19.98L115.42-19.98Q112.91-19.89 111.98-20.41 111.06-20.93 111.06-21.29 111.06-21.64 112.55-21.82L112.55-21.82Q117-22.41 120.24-23.67L120.24-23.67Q121.05-23.98 121.72-23.98 122.4-23.98 123.41-23.65 124.42-23.31 124.42-22.72L124.42-22.72Q124.42-21.33 119.25-20.47L119.25-20.47Q119.56-20.07 119.56-19.78 119.56-19.48 119.5-19.26 119.43-19.04 119.34-17.55L119.34-17.55Q120.38-17.95 121.21-17.95 122.04-17.95 122.89-17.62 123.75-17.28 123.75-16.74 123.75-16.2 123.16-15.82 122.58-15.43 119.25-14.67L119.25-14.67ZM95.13-22.36L95.13-22.36Q95.85-22.36 97.81-21.98 99.77-21.6 100.48-20.9 101.2-20.2 101.2-18.77 101.2-17.32 100.69-16.52 100.17-15.71 99.36-15.71L99.36-15.71Q97.92-15.71 96.17-18.59 94.41-21.46 94.41-21.91 94.41-22.36 95.13-22.36ZM103.86-16.7L103.86-16.7Q103.86-15.75 103.12-12.38 102.38-9 101.88-6.5 101.39-4 101.32-3.1 101.25-2.21 101.25-0.54L101.25-0.54Q101.25 2.16 100.01 2.16 98.78 2.16 96.82-0.97 94.86-4.09 94.86-5.31L94.86-5.31Q94.86-5.71 95.13-6.01 95.4-6.3 96.28-6.55 97.16-6.79 97.65-7.45 98.14-8.1 99.52-10.62 100.89-13.14 101.7-14.89L101.7-14.89Q102.91-17.59 103.55-17.59L103.55-17.59Q103.86-17.59 103.86-16.7ZM164.56-23.54L164.56-23.54Q167.44-23.89 169.38-25.06L169.38-25.06Q170.37-25.7 171.13-25.7 171.9-25.7 174.24-24.23 176.58-22.77 176.58-21.87L176.58-21.87Q176.58-21.06 174.71-20.68 172.84-20.29 170.14-18.4L170.14-18.4Q168.84-17.46 168.3-17.46L168.3-17.46Q167.99-17.46 167.99-17.91 167.99-18.36 168.7-19.73 169.43-21.11 169.43-21.49 169.43-21.87 168.93-21.87L168.93-21.87Q167.35-21.87 165.01-21.2L165.01-21.2Q164.38-21.02 163.98-21.02 163.57-21.02 163.08-21.2L163.08-21.2Q161.87-19.57 160.09-18.11 158.31-16.65 158-16.65 157.68-16.65 157.68-16.83L157.68-16.83Q157.68-17.32 158.58-18.95L158.58-18.95Q160.88-23.09 161.95-26.86 163.03-30.64 163.03-31.95L163.03-31.95Q163.03-32.8 162.63-33.7 162.22-34.6 162.22-35.35 162.22-36.09 163.15-36.09 164.07-36.09 166.61-34.67 169.16-33.25 169.16-32.22L169.16-32.22Q169.16-31.68 168.28-30.8 167.4-29.92 166.81-28.48L166.81-28.48Q165.6-25.38 164.56-23.54ZM153.45-29.43L153.45-29.43Q147.74-28.35 146.88-28.15 146.03-27.95 145.35-27.95 144.68-27.95 143.37-28.64 142.06-29.34 142.06-29.65 142.06-29.97 143.93-30.17 145.8-30.38 148.63-31.05 151.47-31.72 153.38-32.42 155.29-33.12 156.31-33.12 157.32-33.12 158.49-32.65 159.66-32.17 159.66-31.5 159.66-30.82 158.78-30.4 157.91-29.97 156.19-29.88L156.19-29.88Q157.77-28.62 157.77-28.15 157.77-27.68 157.48-27.2 157.19-26.73 157.03-25.63 156.87-24.52 156.62-22.52 156.38-20.52 155.77-19.71 155.16-18.9 154.37-18.9 153.59-18.9 153.13-19.78 152.69-20.65 152.69-21.26 152.69-21.87 152.95-22.59 153.22-23.31 153.47-25.06 153.72-26.82 153.72-27.92 153.72-29.02 153.45-29.43ZM144.81-25.52L144.81-25.52Q146.84-25.7 148.41-26.59L148.41-26.59Q149.22-27.04 149.9-27.04 150.57-27.04 151.9-26.23 153.22-25.43 153.22-25 153.22-24.57 152.59-24.12L152.59-24.12Q151.29-23.22 150.97-21.91L150.97-21.91Q151.88-21.29 151.88-20.77 151.88-20.25 150.68-19.93 149.49-19.62 146.16-19.44L146.16-19.44Q145.75-18.4 144.99-18.4L144.99-18.4Q144.63-18.4 144.16-18.74 143.69-19.08 143.28-20.97L143.28-20.97Q142.74-23.54 142.09-24.34 141.44-25.15 141.44-25.56 141.44-25.96 142.29-25.96 143.15-25.96 144.81-25.52ZM148.46-21.78L148.46-21.78Q148.81-23.54 148.81-23.8 148.81-24.07 148.12-24.07 147.42-24.07 145.98-23.89L145.98-23.89Q146.12-22.23 146.29-21.24L146.29-21.24Q147.74-21.46 148.46-21.78ZM165.33-12.82L165.33-12.82Q168.34-8.96 170.64-7.13 172.94-5.31 177.16-3.24L177.16-3.24Q180.22-1.75 180.22-1.21 180.22-0.67 176.6-0.4 172.98-0.14 171.92-0.14 170.87-0.14 169.9-0.61 168.93-1.08 167.09-4.37 165.24-7.65 164.47-9.22L164.47-9.22Q163.57-6.21 161.78-4.41 159.97-2.61 155.47-0.49L155.47-0.49Q155.16 1.8 153.7 3.17 152.24 4.54 151.29 4.54L151.29 4.54Q150.48 4.54 150.05 3.35 149.63 2.16 149.09 1.46 148.54 0.77 147.74 0.14L147.74 0.14Q146.29-0.99 146.29-1.42 146.29-1.84 146.9-1.84 147.51-1.84 148.43-1.64 149.35-1.44 150.07-1.44 150.79-1.44 151.16-2.16 151.51-2.88 151.67-4.46 151.83-6.03 151.83-9.2 151.83-12.38 151.49-13.54 151.16-14.71 149.94-15.62L149.94-15.62Q145.35-14.94 142.56-14.04L142.56-14.04Q140.81-13.46 139.86-13.46 138.91-13.46 137.61-14.74 136.31-16.02 136.31-16.45 136.31-16.88 137-16.88 137.7-16.88 138.38-16.79 139.05-16.7 140-16.7L140-16.7Q144.99-16.7 153.13-18.31L153.13-18.31Q154.53-18.63 155.32-18.63 156.1-18.63 156.85-18.09 157.59-17.55 157.59-17.19L157.59-17.19Q157.59-16.52 155.12-16.25L155.12-16.25Q153.99-16.16 153.45-16.06L153.45-16.06Q154.84-15.39 155.54-14.85 156.24-14.31 156.24-13.75 156.24-13.18 155.97-12.38L155.97-12.38Q155.47-10.93 155.47-6.79L155.47-6.79 155.61-2.11Q158.85-4.86 160.13-8.03 161.41-11.21 161.41-14.17L161.41-14.17Q161.41-15.88 160.99-16.65 160.56-17.41 160.56-18.07 160.56-18.72 161.53-18.72 162.5-18.72 164.54-17.77 166.59-16.83 166.59-15.93L166.59-15.93Q166.59-15.52 166.12-14.98 165.65-14.45 165.33-12.82ZM143.46-12.51L143.46-12.51Q145.98-12.51 147.38-13.37L147.38-13.37Q148-13.77 148.61-13.77 149.22-13.77 150.46-13.07 151.69-12.38 151.69-11.83 151.69-11.29 151.25-10.93L151.25-10.93Q149.94-9.9 149.72-8.82L149.72-8.82Q150.75-8.37 150.75-7.79L150.75-7.79Q150.75-6.93 148.81-6.71 146.88-6.48 144.54-6.12L144.54-6.12Q143.87-4.41 143.21-4.41 142.56-4.41 142.22-5.06 141.88-5.71 141.71-7.6 141.53-9.49 141.37-10.1 141.21-10.71 140.76-11.36 140.31-12.01 140.31-12.49 140.31-12.96 141.16-12.96 142.02-12.96 143.46-12.51ZM146.88-8.78L146.88-8.78Q147.24-9.09 147.42-9.74 147.6-10.39 147.6-10.66L147.6-10.66Q147.6-11.29 147.01-11.29L147.01-11.29Q146.79-11.29 146.16-11.09 145.53-10.89 144.41-10.8L144.41-10.8Q144.45-9.95 144.68-8.23L144.68-8.23Q146.29-8.55 146.88-8.78Z" transform="translate(-3.6500000953674316, 36.09000015258789)"></path></g> <!----> <!----> <!----> <!----> <!----> <!----> <!----></g></g> <g data-gra="path-slogan" fill-rule="" class="tp-slogan iconsvg-slogansvg" fill="#2bbdc4" transform="translate(32.7841796875,46.86000061035156)"><!----> <!----> <g transform="scale(1, 1)"><g transform="scale(1)"><path d="M7.17-6.09L7.17-6.09L6.09-6.09Q6-7.73 3.94-7.83L3.94-7.83Q2.02-7.78 2.02-6.33L2.02-6.33Q2.02-5.39 3.05-5.25L3.05-5.25L5.48-4.69Q7.41-4.22 7.41-2.34L7.41-2.34Q7.36 0.05 4.03 0.14L4.03 0.14Q2.20 0.14 1.45-0.61L1.45-0.61Q0.52-1.31 0.56-2.77L0.56-2.77L1.69-2.77Q1.73-0.80 4.03-0.75L4.03-0.75Q6.28-0.80 6.33-2.20L6.33-2.20Q6.52-3.38 4.45-3.75L4.45-3.75L2.67-4.13Q0.84-4.64 0.84-6.19L0.84-6.19Q0.98-8.72 3.84-8.81L3.84-8.81Q7.08-8.81 7.17-6.09ZM10.03-5.06L14.53-5.06L14.53-8.58L15.70-8.58L15.70 0L14.53 0L14.53-3.98L10.03-3.98L10.03 0L8.86 0L8.86-8.58L10.03-8.58L10.03-5.06ZM18.80-1.03L23.95-1.03L23.95 0L17.63 0L17.63-8.58L23.86-8.58L23.86-7.59L18.80-7.59L18.80-4.92L23.48-4.92L23.48-3.89L18.80-3.89L18.80-1.03ZM26.86-8.58L31.17-1.64L31.17-8.58L32.30-8.58L32.30 0L30.98 0L26.63-6.94L26.58-6.94L26.58 0L25.45 0L25.45-8.58L26.86-8.58ZM34.92-1.03L40.22-1.03L40.22 0L33.47 0L33.47-0.94L38.72-7.59L33.84-7.59L33.84-8.58L40.22-8.58L40.22-7.59L34.92-1.03ZM42.52-5.06L47.02-5.06L47.02-8.58L48.19-8.58L48.19 0L47.02 0L47.02-3.98L42.52-3.98L42.52 0L41.34 0L41.34-8.58L42.52-8.58L42.52-5.06ZM51.28-1.03L56.44-1.03L56.44 0L50.11 0L50.11-8.58L56.34-8.58L56.34-7.59L51.28-7.59L51.28-4.92L55.97-4.92L55.97-3.89L51.28-3.89L51.28-1.03ZM59.34-8.58L63.66-1.64L63.66-8.58L64.78-8.58L64.78 0L63.47 0L59.11-6.94L59.06-6.94L59.06 0L57.94 0L57.94-8.58L59.34-8.58ZM74.02-3.70L71.20-3.70L71.20 0L70.03 0L70.03-8.58L74.02-8.58Q76.88-8.58 76.88-6.28L76.88-6.28Q76.88-4.88 75.66-4.22L75.66-4.22Q76.69-3.94 76.69-2.58L76.69-2.58L76.78-1.03Q76.73-0.38 77.20-0.19L77.20-0.19L77.20 0L75.75 0Q75.61-0.61 75.56-2.16L75.56-2.16Q75.61-3.70 74.02-3.70L74.02-3.70ZM74.11-7.64L71.20-7.64L71.20-4.69L73.92-4.69Q75.66-4.69 75.66-6.19L75.66-6.19Q75.66-7.64 74.11-7.64L74.11-7.64ZM84.19-3.19L84.19-8.58L85.36-8.58L85.36-3.05Q85.22 0.05 81.84 0.14L81.84 0.14Q78.70 0.05 78.56-2.86L78.56-2.86L78.56-8.58L79.73-8.58L79.73-3.19Q79.78-0.84 81.89-0.80L81.89-0.80Q84.19-0.84 84.19-3.19L84.19-3.19ZM88.55-8.58L92.86-1.64L92.86-8.58L93.98-8.58L93.98 0L92.67 0L88.31-6.94L88.27-6.94L88.27 0L87.14 0L87.14-8.58L88.55-8.58ZM102.19-3.61L99.56-3.61L99.56-4.59L103.31-4.59L103.31 0L102.56 0L102.28-1.08Q101.30 0.09 99.47 0.14L99.47 0.14Q97.73 0.14 96.80-0.75L96.80-0.75Q95.39-2.06 95.44-4.36L95.44-4.36Q95.77-8.63 99.52-8.81L99.52-8.81Q102.70-8.63 103.17-6L103.17-6L102.05-6Q101.58-7.78 99.47-7.83L99.47-7.83Q96.80-7.64 96.66-4.31L96.66-4.31Q96.66-0.75 99.52-0.75L99.52-0.75Q100.55-0.75 101.30-1.31L101.30-1.31Q102.23-2.06 102.19-3.61L102.19-3.61ZM106.41-1.03L111.56-1.03L111.56 0L105.23 0L105.23-8.58L111.47-8.58L111.47-7.59L106.41-7.59L106.41-4.92L111.09-4.92L111.09-3.89L106.41-3.89L106.41-1.03Z" transform="translate(-0.5602678571428572, 8.8125)"></path></g></g></g></g></g><defs v-gra="od"></defs></svg>